<svg xmlns="http://www.w3.org/2000/svg" viewBox="0 0 1999.37 1461.4"><g id="f45a2f9a-d8d9-4369-99ef-28901816f504" data-name="Camada 2"><g id="b61f990e-e288-45b4-a56d-d34e4c58cb06" data-name="Camada 1"><path d="M311.46,1196.11h74.07v17.29H360.94v245H338.88v-245H311.46Z" style="fill:#fff"/><path d="M415.34,1196.11h69.3v17.29H437.55v102.54h44.26v18H437.55v106.86H484.2v17.59H415.34Z" style="fill:#fff"/><path d="M517.13,1272q0-47.68,12-63.41t34.13-15.73q22.14,0,31.67,10.88,6.86,7.9,9,15.65,4.9,18.2,4.91,54.4v22.66h-22.5v-25.34q0-33.09-3.58-44.27t-10.13-14.15a19.4,19.4,0,0,0-8.2-1.64q-14.16,0-19.6,14.45t-5.44,45.46v105.22q0,38,4.77,52.54t19.08,14.53q14.31,0,18.7-14.46t4.4-52.46v-21h22.35v20.86q0,34.42-3.87,49.56T596,1447.39q-10.44,14-32.35,14t-32.93-13.86q-13.58-17-13.57-71.09Z" style="fill:#fff"/><path d="M720.13,1196.11h22.2v262.31h-22.2V1326.37h-48v132.05h-22.2V1196.11h22.2v113.57h48Z" style="fill:#fff"/><path d="M867.67,1196.11h19.38v262.31H869.76L809.4,1260.8l1.49,70.94v126.68H790V1196.11h15.5L869.91,1399l-2.24-90.31Z" style="fill:#fff"/><path d="M930.87,1269.44q0-47.54,11.92-62.08t36.66-14.53q24.74,0,34.13,16.1a64.74,64.74,0,0,1,7.9,25.34,319.82,319.82,0,0,1,1.64,35.17v111.63q0,34.13-4.1,48.06t-9.16,19.9q-10.74,12.38-32.64,12.37-32.64,0-40.84-28.17-5.52-18.48-5.51-52.16Zm70-1.79q0-31.29-4.54-44T977.81,1211q-14,0-19.37,13t-5.37,43.44v113.57q0,36.21,3.73,46.35t8.27,13q4.54,2.83,12,2.83t11.92-2.83q4.47-2.84,8.2-12.89t3.72-46.43Z" style="fill:#fff"/><path d="M1066.94,1196.11h22.21v244.72h46.5v17.59h-68.71Z" style="fill:#fff"/><path d="M1158.3,1269.44q0-47.54,11.92-62.08t36.67-14.53q24.73,0,34.13,16.1a65.07,65.07,0,0,1,7.9,25.34,320.1,320.1,0,0,1,1.63,35.17v111.63q0,34.13-4.09,48.06t-9.17,19.9q-10.72,12.38-32.64,12.37-32.64,0-40.84-28.17-5.5-18.48-5.51-52.16Zm70-1.79q0-31.29-4.55-44T1205.25,1211q-14,0-19.38,13t-5.36,43.44v113.57q0,36.21,3.72,46.35t8.27,13q4.55,2.83,12,2.83t11.92-2.83q4.49-2.84,8.2-12.89t3.73-46.43Z" style="fill:#fff"/><path d="M1290.5,1272.87q0-40.69,8-56.64,11.63-23.4,38.31-23.4,17.13,0,26.23,6.71t11.77,14.61a111.64,111.64,0,0,1,6,28.09q1,13.34,1,30.33v21.91H1359.2v-40.54q0-22.35-4.47-32.64T1336.92,1211q-13.34,0-18.78,13.34t-5.44,46.12v107q0,37.11,4.77,51.42t18.78,14.31q14,0,18.78-14.46t4.77-51V1344.7h-22.51v-18.92h44.57v132.64h-14.61l-2.38-15.2q-5.52,9.24-13,13.71t-19.23,4.47q-22.05,0-32.11-19.3t-10.06-63Z" style="fill:#fff"/><path d="M1429.55,1196.11h22.21v262.31h-22.21Z" style="fill:#fff"/><path d="M1502,1196.11h69.31v17.29h-47.1v102.54h44.26v18h-44.26v106.86h46.65v17.59H1502Z" style="fill:#fff"/><path d="M1598.41,1236.35q2.23-21.3,12.59-32.41t32.42-11.11q22,0,30.7,11a56.13,56.13,0,0,1,7.46,11.93q5.65,12.06,5.81,57.52v14.76h-22.81v-16.39q0-34.58-2.23-41.88a46.27,46.27,0,0,0-4.62-11q-4.32-6.86-15.5-6.86-22.67,0-22.65,42.18,0,14.76,2.83,20t4.24,8.28q1.42,3,19,20.56l14.3,14.46q31.76,32.64,31.75,74.89T1679.56,1448q-12.15,13.41-36,13.41-36.66,0-42.18-44.26a291.89,291.89,0,0,1-1.93-36.67V1353.2h22.65V1380q0,35.46,4.69,48.88t19.16,13.41q14.44,0,18.4-8.71t4.32-21.09q.38-12.37.38-26.53,0-29.21-23.1-51.72l-15.21-14.46q-20-19.51-26.67-32.86a59.65,59.65,0,0,1-6.71-27.12A223,223,0,0,1,1598.41,1236.35Z" style="fill:#fff"/><path d="M54.77,974.42Q0,895.58,0,735.48V290.11Q0,146.86,63.8,73.44T254,0q102.33,0,158.9,40.94t78.24,119.17q21.66,78.24,21.68,201H310.56V268.44q0-37.32-10.23-57.78t-36.71-20.47q-59,0-59,77V768q0,47,12,71t42.14,24.06q30.1,0,42.13-24.06t12-71V619.92H257.61V441.78H510.39v601.86H427.33L392.42,957q-55.38,96.3-170.94,96.3Q109.55,1053.27,54.77,974.42Z" style="fill:#fff"/><path d="M592.21,1043.64V9.64H798.06V379.19h97.5V9.64H1101.4v1034H895.56V574.19h-97.5v469.45Z" style="fill:#fff"/><path d="M1192.87,1043.64V9.64h315.39l86.65,630.75L1681.59,9.64h317.78v1034h-189V298.53l-119.15,745.11H1505.85l-126.4-745.11v745.11Z" style="fill:#fff"/></g></g></svg>